<svg xmlns="http://www.w3.org/2000/svg" width="1200" height="600" viewBox="0 0 1200 600"><rect width="1200" height="600" fill="#fff"/><g transform="translate(0 20)"><ellipse cx="200" cy="548" rx="95" ry="12" fill="#000" opacity="0.07"/><path d="M 94 165 C 84 52 316 52 306 165 L 318 435 Q 300 448 280 438 L 272 300 L 128 300 L 120 438 Q 100 448 82 435 Z" fill="#2A2360" stroke="#3B2B3F" stroke-width="4" stroke-linejoin="round" stroke-linecap="round" /><line x1="180" y1="420" x2="178" y2="518" stroke="#3B2B3F" stroke-width="40" stroke-linecap="round"/><line x1="180" y1="420" x2="178" y2="518" stroke="#FFE6D5" stroke-width="32" stroke-linecap="round"/><line x1="220" y1="420" x2="222" y2="518" stroke="#3B2B3F" stroke-width="40" stroke-linecap="round"/><line x1="220" y1="420" x2="222" y2="518" stroke="#FFE6D5" stroke-width="32" stroke-linecap="round"/><ellipse cx="174" cy="530" rx="26" ry="15" fill="#221C4D" stroke="#3B2B3F" stroke-width="4" /><ellipse cx="226" cy="530" rx="26" ry="15" fill="#221C4D" stroke="#3B2B3F" stroke-width="4" /><path d="M 150 382 L 128 438 Q 200 452 272 438 L 250 382 Z" fill="#1E5BFF" stroke="#3B2B3F" stroke-width="4" stroke-linejoin="round" stroke-linecap="round" /><path d="M 156 255 L 146 392 Q 200 404 254 392 L 244 255 Z" fill="#7B3FE4" stroke="#3B2B3F" stroke-width="4" stroke-linejoin="round" stroke-linecap="round" /><path d="M 184 256 L 200 330 L 216 256 Z" fill="#F5F3FF" stroke="#3B2B3F" stroke-width="4" stroke-linejoin="round" stroke-linecap="round" /><path d="M 168 250 L 184 256 L 196 300 Z" fill="#9D6BFF" stroke="#3B2B3F" stroke-width="4" stroke-linejoin="round" stroke-linecap="round" /><path d="M 232 250 L 216 256 L 204 300 Z" fill="#9D6BFF" stroke="#3B2B3F" stroke-width="4" stroke-linejoin="round" stroke-linecap="round" /><path d="M 200 330 L 200 392" stroke="#3B2B3F" stroke-width="3"/><path d="M 146 392 Q 200 404 254 392" fill="none" stroke="#2EE6FF" stroke-width="3"/><line x1="153" y1="280" x2="120" y2="368" stroke="#3B2B3F" stroke-width="34" stroke-linecap="round"/><line x1="153" y1="280" x2="120" y2="368" stroke="#7B3FE4" stroke-width="26" stroke-linecap="round"/><circle cx="116" cy="380" r="15" fill="#FFE6D5" stroke="#3B2B3F" stroke-width="4"/><line x1="247" y1="280" x2="280" y2="368" stroke="#3B2B3F" stroke-width="34" stroke-linecap="round"/><line x1="247" y1="280" x2="280" y2="368" stroke="#7B3FE4" stroke-width="26" stroke-linecap="round"/><circle cx="284" cy="380" r="15" fill="#FFE6D5" stroke="#3B2B3F" stroke-width="4"/><ellipse cx="200" cy="170" rx="105" ry="95" fill="#FFE6D5" stroke="#3B2B3F" stroke-width="4" /><defs>
    <clipPath id="ae3"><path d="M 190 204 Q 169 174 130 186 Q 148 224 190 204 Z"/></clipPath>
    <linearGradient id="ag4" x1="0" y1="0" x2="0" y2="1"><stop offset="0" stop-color="#1B3FD8"/><stop offset="1" stop-color="#9B4DFF"/></linearGradient>
    <linearGradient id="pg5" x1="0" y1="0" x2="1" y2="1"><stop offset="0" stop-color="#FF5FA2"/><stop offset=".35" stop-color="#FFE14D"/><stop offset=".65" stop-color="#3DF0C5"/><stop offset="1" stop-color="#4DA3FF"/></linearGradient>
  </defs>
  <path d="M 190 204 Q 169 174 130 186 Q 148 224 190 204 Z" fill="#fff"/>
  <g clip-path="url(#ae3)">
    <ellipse cx="158" cy="198" rx="15" ry="17" fill="url(#ag4)"/>
    <path d="M 158 186 L 166 198 L 158 210 L 150 198 Z" fill="#140F2E"/>
    <path d="M 157 191 L 161 197 L 157 202 L 153 197 Z" fill="url(#pg5)"/>
  </g>
  <path d="M 190 204 Q 169 174 130 186 Q 148 224 190 204 Z" fill="none" stroke="#3B2B3F" stroke-width="3"/>
  <path d="M 192 202 Q 169 172 124 182" fill="none" stroke="#3B2B3F" stroke-width="6.5" stroke-linecap="round"/>
  <circle cx="166" cy="192" r="3.5" fill="#fff"/><defs>
    <clipPath id="ae6"><path d="M 210 204 Q 231 174 270 186 Q 252 224 210 204 Z"/></clipPath>
    <linearGradient id="ag7" x1="0" y1="0" x2="0" y2="1"><stop offset="0" stop-color="#1B3FD8"/><stop offset="1" stop-color="#9B4DFF"/></linearGradient>
    <linearGradient id="pg8" x1="0" y1="0" x2="1" y2="1"><stop offset="0" stop-color="#FF5FA2"/><stop offset=".35" stop-color="#FFE14D"/><stop offset=".65" stop-color="#3DF0C5"/><stop offset="1" stop-color="#4DA3FF"/></linearGradient>
  </defs>
  <path d="M 210 204 Q 231 174 270 186 Q 252 224 210 204 Z" fill="#fff"/>
  <g clip-path="url(#ae6)">
    <ellipse cx="242" cy="198" rx="15" ry="17" fill="url(#ag7)"/>
    <path d="M 242 186 L 250 198 L 242 210 L 234 198 Z" fill="#140F2E"/>
    <path d="M 241 191 L 245 197 L 241 202 L 237 197 Z" fill="url(#pg8)"/>
  </g>
  <path d="M 210 204 Q 231 174 270 186 Q 252 224 210 204 Z" fill="none" stroke="#3B2B3F" stroke-width="3"/>
  <path d="M 208 202 Q 231 172 276 182" fill="none" stroke="#3B2B3F" stroke-width="6.5" stroke-linecap="round"/>
  <circle cx="234" cy="192" r="3.5" fill="#fff"/><path d="M 134 164 L 176 172 M 266 164 L 224 172" fill="none" stroke="#3B2B3F" stroke-width="4.5" stroke-linecap="round"/><ellipse cx="132" cy="232" rx="14" ry="7" fill="#FF8FA3" stroke="none" stroke-width="0" opacity="0.75"/><path d="M 124 235 l 5 -7 M 132 235 l 5 -7 M 140 235 l 5 -7" stroke="#E0607A" stroke-width="2" stroke-linecap="round"/><ellipse cx="268" cy="232" rx="14" ry="7" fill="#FF8FA3" stroke="none" stroke-width="0" opacity="0.75"/><path d="M 260 235 l 5 -7 M 268 235 l 5 -7 M 276 235 l 5 -7" stroke="#E0607A" stroke-width="2" stroke-linecap="round"/><path d="M 188 240 Q 202 246 214 236" fill="none" stroke="#3B2B3F" stroke-width="4" stroke-linecap="round"/><path d="M 92 205 C 84 80 150 58 205 60 C 268 58 320 90 308 205 Q 298 160 276 138 L 262 158 L 250 128 L 224 152 L 216 124 L 190 150 Q 150 150 132 128 L 124 160 Q 104 170 92 205 Z" fill="#2A2360" stroke="#3B2B3F" stroke-width="4" stroke-linejoin="round" stroke-linecap="round" /><path d="M 230 78 Q 262 80 280 104" fill="none" stroke="#5146A8" stroke-width="6" stroke-linecap="round"/><path d="M 128 68 L 143.2 68 L 131.8 100.3 L 145.1 100.3 L 116.6 155.39999999999998 L 126.1 113.6 L 112.8 113.6 Z" fill="#2EE6FF" stroke="#3B2B3F" stroke-width="3" stroke-linejoin="round"/></g><g transform="translate(400 20)"><ellipse cx="200" cy="548" rx="95" ry="12" fill="#000" opacity="0.07"/><line x1="188" y1="420" x2="186" y2="518" stroke="#3B2B3F" stroke-width="38" stroke-linecap="round"/><line x1="188" y1="420" x2="186" y2="518" stroke="#FFE6D5" stroke-width="30" stroke-linecap="round"/><ellipse cx="198" cy="530" rx="30" ry="14" fill="#221C4D" stroke="#3B2B3F" stroke-width="4" /><line x1="202" y1="420" x2="204" y2="518" stroke="#3B2B3F" stroke-width="38" stroke-linecap="round"/><line x1="202" y1="420" x2="204" y2="518" stroke="#FFE6D5" stroke-width="30" stroke-linecap="round"/><ellipse cx="215" cy="532" rx="30" ry="14" fill="#221C4D" stroke="#3B2B3F" stroke-width="4" /><path d="M 176 382 L 160 438 Q 200 448 246 438 L 228 382 Z" fill="#1E5BFF" stroke="#3B2B3F" stroke-width="4" stroke-linejoin="round" stroke-linecap="round" /><path d="M 178 255 L 170 392 Q 200 400 234 392 L 226 255 Z" fill="#7B3FE4" stroke="#3B2B3F" stroke-width="4" stroke-linejoin="round" stroke-linecap="round" /><path d="M 214 246 L 232 250 L 226 280 L 212 266 Z" fill="#9D6BFF" stroke="#3B2B3F" stroke-width="4" stroke-linejoin="round" stroke-linecap="round" /><line x1="203" y1="282" x2="212" y2="372" stroke="#3B2B3F" stroke-width="34" stroke-linecap="round"/><line x1="203" y1="282" x2="212" y2="372" stroke="#7B3FE4" stroke-width="26" stroke-linecap="round"/><circle cx="213" cy="384" r="15" fill="#FFE6D5" stroke="#3B2B3F" stroke-width="4"/><path d="M 200 75 C 262 75 306 115 306 172 C 306 232 262 265 200 265 C 138 265 95 230 95 172 C 95 115 138 75 200 75 Z" fill="#FFE6D5" stroke="#3B2B3F" stroke-width="4" stroke-linejoin="round" stroke-linecap="round" /><defs>
    <clipPath id="ae9"><path d="M 247 202 Q 257.5 172 277 184 Q 268 222 247 202 Z"/></clipPath>
    <linearGradient id="ag10" x1="0" y1="0" x2="0" y2="1"><stop offset="0" stop-color="#1B3FD8"/><stop offset="1" stop-color="#9B4DFF"/></linearGradient>
    <linearGradient id="pg11" x1="0" y1="0" x2="1" y2="1"><stop offset="0" stop-color="#FF5FA2"/><stop offset=".35" stop-color="#FFE14D"/><stop offset=".65" stop-color="#3DF0C5"/><stop offset="1" stop-color="#4DA3FF"/></linearGradient>
  </defs>
  <path d="M 247 202 Q 257.5 172 277 184 Q 268 222 247 202 Z" fill="#fff"/>
  <g clip-path="url(#ae9)">
    <ellipse cx="264" cy="196" rx="7.5" ry="17" fill="url(#ag10)"/>
    <path d="M 264 184 L 268 196 L 264 208 L 260 196 Z" fill="#140F2E"/>
    <path d="M 263 189 L 265.5 195 L 263 200 L 261.5 195 Z" fill="url(#pg11)"/>
  </g>
  <path d="M 247 202 Q 257.5 172 277 184 Q 268 222 247 202 Z" fill="none" stroke="#3B2B3F" stroke-width="3"/>
  <path d="M 245 200 Q 257.5 170 283 180" fill="none" stroke="#3B2B3F" stroke-width="6.5" stroke-linecap="round"/>
  <circle cx="259" cy="190" r="3.5" fill="#fff"/><ellipse cx="242" cy="232" rx="11" ry="5.5" fill="#FF8FA3" stroke="none" stroke-width="0" opacity="0.75"/><path d="M 234 235 l 5 -7 M 242 235 l 5 -7 M 250 235 l 5 -7" stroke="#E0607A" stroke-width="2" stroke-linecap="round"/><path d="M 246 164 L 274 170" fill="none" stroke="#3B2B3F" stroke-width="4.5" stroke-linecap="round"/><path d="M 254 244 Q 262 246 268 240" fill="none" stroke="#3B2B3F" stroke-width="4" stroke-linecap="round"/><path d="M 304 175 C 308 92 250 56 195 58 C 118 60 80 110 86 205 L 72 438 Q 120 452 176 440 L 182 300 C 184 230 202 184 240 160 L 252 180 L 264 150 L 286 178 Z" fill="#2A2360" stroke="#3B2B3F" stroke-width="4" stroke-linejoin="round" stroke-linecap="round" /><path d="M 160 78 Q 210 66 250 82" fill="none" stroke="#5146A8" stroke-width="6" stroke-linecap="round"/><path d="M 150 90 L 170 90 L 155 132.5 L 172.5 132.5 L 135 205 L 147.5 150 L 130 150 Z" fill="#2EE6FF" stroke="#3B2B3F" stroke-width="3" stroke-linejoin="round"/></g><g transform="translate(800 20)"><ellipse cx="200" cy="548" rx="95" ry="12" fill="#000" opacity="0.07"/><line x1="180" y1="420" x2="178" y2="518" stroke="#3B2B3F" stroke-width="40" stroke-linecap="round"/><line x1="180" y1="420" x2="178" y2="518" stroke="#FFE6D5" stroke-width="32" stroke-linecap="round"/><line x1="220" y1="420" x2="222" y2="518" stroke="#3B2B3F" stroke-width="40" stroke-linecap="round"/><line x1="220" y1="420" x2="222" y2="518" stroke="#FFE6D5" stroke-width="32" stroke-linecap="round"/><ellipse cx="174" cy="530" rx="26" ry="15" fill="#221C4D" stroke="#3B2B3F" stroke-width="4" /><ellipse cx="226" cy="530" rx="26" ry="15" fill="#221C4D" stroke="#3B2B3F" stroke-width="4" /><path d="M 150 382 L 128 438 Q 200 452 272 438 L 250 382 Z" fill="#1E5BFF" stroke="#3B2B3F" stroke-width="4" stroke-linejoin="round" stroke-linecap="round" /><path d="M 156 255 L 146 392 Q 200 404 254 392 L 244 255 Z" fill="#7B3FE4" stroke="#3B2B3F" stroke-width="4" stroke-linejoin="round" stroke-linecap="round" /><path d="M 160 246 Q 200 262 240 246 L 244 270 Q 200 280 156 270 Z" fill="#9D6BFF" stroke="#3B2B3F" stroke-width="4" stroke-linejoin="round" stroke-linecap="round" /><path d="M 146 392 Q 200 404 254 392" fill="none" stroke="#2EE6FF" stroke-width="3"/><line x1="153" y1="280" x2="120" y2="368" stroke="#3B2B3F" stroke-width="34" stroke-linecap="round"/><line x1="153" y1="280" x2="120" y2="368" stroke="#7B3FE4" stroke-width="26" stroke-linecap="round"/><circle cx="116" cy="380" r="15" fill="#FFE6D5" stroke="#3B2B3F" stroke-width="4"/><line x1="247" y1="280" x2="280" y2="368" stroke="#3B2B3F" stroke-width="34" stroke-linecap="round"/><line x1="247" y1="280" x2="280" y2="368" stroke="#7B3FE4" stroke-width="26" stroke-linecap="round"/><circle cx="284" cy="380" r="15" fill="#FFE6D5" stroke="#3B2B3F" stroke-width="4"/><ellipse cx="200" cy="170" rx="105" ry="95" fill="#FFE6D5" stroke="#3B2B3F" stroke-width="4" /><path d="M 90 168 C 76 34 324 34 310 168 L 322 438 Q 260 452 200 440 Q 140 452 78 438 Z" fill="#2A2360" stroke="#3B2B3F" stroke-width="4" stroke-linejoin="round" stroke-linecap="round" /><path d="M 200 70 L 200 430 M 150 90 Q 132 250 140 430 M 250 90 Q 268 250 260 430" fill="none" stroke="#5146A8" stroke-width="3" stroke-linecap="round"/><path d="M 252 88 L 267.2 88 L 255.8 120.3 L 269.1 120.3 L 240.6 175.39999999999998 L 250.1 133.6 L 236.8 133.6 Z" fill="#2EE6FF" stroke="#3B2B3F" stroke-width="3" stroke-linejoin="round"/></g></svg>